<?xml version="1.0" encoding="utf-8"?>
<!-- Generator: Adobe Illustrator 25.0.1, SVG Export Plug-In . SVG Version: 6.00 Build 0)  -->
<svg version="1.1" id="Layer_1" xmlns="http://www.w3.org/2000/svg" xmlns:xlink="http://www.w3.org/1999/xlink" x="0px" y="0px"
	 viewBox="0 0 128 128" style="enable-background:new 0 0 128 128;" xml:space="preserve">
<style type="text/css">
	.st0{fill:#FFFFFF;}
	.st1{fill:#137FEC;}
	.st2{fill:#137FEC;stroke:#FFFFFF;stroke-width:0.454;stroke-miterlimit:10;}
	.st3{fill:#FFFFFF;stroke:#137FEC;stroke-miterlimit:10;}
	.st4{fill:none;}
</style>
<rect class="st0" width="127.9" height="127.9"/>
<g>
	<rect x="21.7" y="61.3" class="st1" width="70.6" height="5.1"/>
	<polygon class="st1" points="92.3,57.5 97,63.9 92.3,70.5 	"/>
</g>
<g>
	<circle class="st1" cx="18" cy="64" r="12.9"/>
	<circle class="st2" cx="18" cy="64" r="11.5"/>
	<path class="st0" d="M15.5,66c0.1-0.1,0.1-0.2,0.2-0.2c2.6-2.6,5.2-5.2,7.8-7.8c0.4-0.4,1-0.6,1.5-0.3c0.1,0.1,0.3,0.2,0.4,0.3
		c0.2,0.2,0.3,0.3,0.5,0.5c0.6,0.6,0.6,1.3,0,1.9c-0.8,0.8-1.6,1.6-2.4,2.4c-2.4,2.4-4.9,4.9-7.3,7.3c-0.3,0.3-0.6,0.4-0.9,0.3
		c-0.1,0-0.3-0.1-0.4-0.2c-1.6-1.6-3.1-3.1-4.7-4.7c-0.6-0.6-0.6-1.3,0-1.9c0.2-0.2,0.4-0.4,0.5-0.5c0.5-0.5,1.3-0.5,1.8,0
		c0.9,0.9,1.9,1.9,2.8,2.8C15.4,65.9,15.4,65.9,15.5,66z"/>
</g>
<g>
	<circle class="st1" cx="48.2" cy="64" r="12.9"/>
	<circle class="st2" cx="48.2" cy="64" r="11.5"/>
	<path class="st0" d="M45.6,66c0.1-0.1,0.1-0.2,0.2-0.2c2.6-2.6,5.2-5.2,7.8-7.8c0.4-0.4,1-0.6,1.5-0.3c0.1,0.1,0.3,0.2,0.4,0.3
		c0.2,0.2,0.3,0.3,0.5,0.5c0.6,0.6,0.6,1.3,0,1.9c-0.8,0.8-1.6,1.6-2.4,2.4c-2.4,2.4-4.9,4.9-7.3,7.3c-0.3,0.3-0.6,0.4-0.9,0.3
		c-0.1,0-0.3-0.1-0.4-0.2c-1.6-1.6-3.1-3.1-4.7-4.7c-0.6-0.6-0.6-1.3,0-1.9c0.2-0.2,0.4-0.4,0.5-0.5c0.5-0.5,1.3-0.5,1.8,0
		c0.9,0.9,1.9,1.9,2.8,2.8C45.5,65.9,45.6,65.9,45.6,66z"/>
</g>
<g>
	<circle class="st1" cx="78.3" cy="64" r="12.9"/>
	<circle class="st2" cx="78.3" cy="64" r="11.5"/>
	<path class="st0" d="M75.8,66c0.1-0.1,0.1-0.2,0.2-0.2c2.6-2.6,5.2-5.2,7.8-7.8c0.4-0.4,1-0.6,1.5-0.3c0.1,0.1,0.3,0.2,0.4,0.3
		c0.2,0.2,0.3,0.3,0.5,0.5c0.6,0.6,0.6,1.3,0,1.9c-0.8,0.8-1.6,1.6-2.4,2.4c-2.4,2.4-4.9,4.9-7.3,7.3c-0.3,0.3-0.6,0.4-0.9,0.3
		c-0.1,0-0.3-0.1-0.4-0.2c-1.6-1.6-3.1-3.1-4.7-4.7c-0.6-0.6-0.6-1.3,0-1.9c0.2-0.2,0.4-0.4,0.5-0.5c0.5-0.5,1.3-0.5,1.8,0
		c0.9,0.9,1.9,1.9,2.8,2.8C75.7,65.9,75.7,65.9,75.8,66z"/>
</g>
<g>
	<path class="st4" d="M111.9,59.8c2.4,0,4.5-2,4.5-4.4c0-2.5-2-4.5-4.5-4.5c-2.4,0-4.5,2-4.5,4.4C107.4,57.7,109.4,59.7,111.9,59.8z
		 M109.8,55.4c0.2-0.2,0.6-0.2,0.9,0.1c0.2,0.2,0.4,0.4,0.7,0.7c0.3-0.3,0.5-0.6,0.8-0.8c0.7-0.7,1.3-1.3,2-2
		c0.1-0.1,0.2-0.2,0.3-0.2c0.2-0.1,0.5-0.1,0.6,0.1c0.2,0.2,0.2,0.4,0.1,0.6c-0.1,0.1-0.1,0.2-0.2,0.3c-1,1-2.1,2.1-3.1,3.1
		c-0.4,0.4-0.7,0.4-1.1,0c-0.3-0.3-0.6-0.6-0.9-0.9C109.6,56,109.5,55.7,109.8,55.4z"/>
	<path class="st4" d="M101.6,59.6c1-0.3,1.9-0.6,2.9-0.9c0.8-0.3,1.6-0.5,2.4-0.8c-0.2-0.6-0.4-1.1-0.5-1.7
		c-0.1-0.6-0.1-1.1-0.1-1.7c-2.5,0.8-5.1,1.6-7.7,2.4c0.9,0.9,1.8,1.8,2.7,2.7C101.3,59.6,101.5,59.6,101.6,59.6z"/>
	<path class="st4" d="M121,59.6c0.2,0.1,0.3,0,0.4-0.1c0.8-0.8,1.6-1.6,2.4-2.4c0.1-0.1,0.1-0.1,0.2-0.2c-2.2-0.7-4.4-1.3-6.6-2
		c0.1,1.2-0.2,2.3-0.8,3.3c0.1,0,0.2,0.1,0.2,0.1C118.3,58.7,119.6,59.1,121,59.6z"/>
	<path class="st4" d="M110.5,64c-3-1-6-2-9-3c-0.6,1-1.2,2-1.8,3c3,1,6,2,9,3C109.3,66,109.9,65,110.5,64z"/>
	<path class="st4" d="M119.6,60.3c-1.2-0.4-2.2-0.7-3.3-1.1c-0.3-0.1-0.4,0-0.6,0.1c-1.5,1.4-3.3,1.8-5.3,1.3
		c-1.1-0.3-2-0.9-2.7-1.7c-0.1-0.1-0.2-0.1-0.3-0.1c-1.4,0.5-2.8,0.9-4.4,1.4c0.1,0.1,0.2,0.1,0.2,0.1c2.6,0.9,5.2,1.7,7.9,2.6
		c0.1,0,0.3,0,0.4,0c2.6-0.9,5.2-1.7,7.8-2.6C119.4,60.4,119.4,60.4,119.6,60.3z"/>
	<path class="st4" d="M120.9,61c-2.4,0.8-4.7,1.6-7.1,2.4c-0.5,0.2-1.1,0.4-1.6,0.5c0,0.1,0.1,0.1,0.1,0.1c0.7,0.8,1.4,1.7,2,2.5
		c0.1,0.2,0.2,0.1,0.4,0.1c3-1,6.1-1.9,9.1-2.9c0.1,0,0.1-0.1,0.2-0.1c-0.9-0.9-1.7-1.7-2.6-2.6C121.3,61,121.2,61,120.9,61z"/>
	<path class="st4" d="M114.6,67.9c-0.4,0.1-0.6,0.1-0.8-0.3c-0.4-0.5-0.8-1-1.2-1.4c-0.2-0.3-0.5-0.6-0.7-0.9c0,3.9,0,7.8,0,11.7
		c3-1,6-2,8.9-3c0-2.7,0-5.4,0-8.1c-0.1,0-0.2,0.1-0.4,0.1C118.5,66.7,116.5,67.3,114.6,67.9z"/>
	<path class="st4" d="M109.5,67.7c-0.3,0.4-0.4,0.5-0.9,0.4c-1.1-0.4-2.3-0.8-3.4-1.1c-0.8-0.2-1.5-0.5-2.3-0.8c0,0.1,0,0.2,0,0.3
		c0,2.4,0,4.8,0,7.3c0,0.2,0.1,0.3,0.3,0.4c2.1,0.8,4.3,1.6,6.4,2.4c0.4,0.1,0.7,0.3,1.1,0.4c0-3.7,0-7.5,0-11.2c0,0-0.1,0-0.1,0.1
		C110.3,66.5,109.9,67.1,109.5,67.7z M105.7,70.4c0.3,0,0.6,0.3,0.5,0.6c0,0.3-0.3,0.6-0.6,0.5c-0.3,0-0.6-0.3-0.5-0.6
		C105.2,70.7,105.4,70.4,105.7,70.4z M109.6,74.7c-0.1,0.2-0.3,0.4-0.6,0.4c-0.1,0-0.2,0-0.3-0.1c-1-0.4-2.1-0.8-3.1-1.2
		c-0.1,0-0.1-0.1-0.2-0.1c-0.3-0.2-0.4-0.4-0.3-0.7c0.1-0.3,0.4-0.4,0.6-0.3c1.2,0.4,2.4,0.9,3.5,1.3
		C109.6,74.2,109.7,74.5,109.6,74.7z M109.6,72.3c-0.1,0.2-0.3,0.4-0.6,0.4c-0.5-0.2-1.1-0.4-1.6-0.7c-0.2-0.1-0.3-0.4-0.2-0.6
		c0.1-0.2,0.3-0.4,0.6-0.3c0.5,0.2,1,0.3,1.5,0.5C109.6,71.8,109.7,72.1,109.6,72.3z"/>
	<path class="st1" d="M125.4,63.5c-1-1-2-2-3-3c-0.1-0.1-0.1-0.1-0.2-0.2c1-1,1.9-1.9,2.9-2.9c0.2-0.2,0.3-0.3,0.5-0.5
		c0.2-0.3,0.1-0.7-0.2-0.9c-0.1,0-0.2-0.1-0.3-0.1c-2.5-0.8-5-1.5-7.5-2.3c-0.2-0.1-0.3-0.2-0.4-0.4c-0.6-1.6-1.7-2.7-3.2-3.3
		c-0.5-0.2-1-0.3-1.4-0.4c-0.4,0-0.7,0-1.1,0c-0.4,0.1-0.9,0.2-1.3,0.3c-1.5,0.5-2.5,1.5-3.2,2.9c-0.1,0.2-0.2,0.3-0.3,0.3
		c-2.9,0.9-5.9,1.8-8.8,2.7c-0.3,0.1-0.5,0.2-0.6,0.4c0,0.1,0,0.2,0,0.3c0.1,0.1,0.2,0.3,0.4,0.4c0.9,0.9,1.7,1.7,2.6,2.6
		c0.2,0.2,0.4,0.4,0.6,0.6c-0.1,0.1-0.1,0.2-0.2,0.3c-0.6,1.1-1.3,2.1-1.9,3.2c-0.3,0.4-0.1,0.8,0.3,0.9c0,0,0.1,0,0.1,0
		c1,0.3,1.9,0.6,2.9,1c0,0.1,0,0.2,0,0.3c0,2.7,0,5.4,0,8.1c0,0.5,0.1,0.6,0.5,0.8c2.9,1.1,5.7,2.2,8.6,3.2c0.3,0.1,0.5,0.1,0.8,0
		c3.2-1.1,6.5-2.2,9.7-3.2c0.5-0.2,0.6-0.3,0.6-0.8c0-2.8,0-5.5,0-8.3c0-0.1,0-0.2,0-0.3c1.1-0.3,2.1-0.7,3.1-1
		C125.7,64.4,125.8,64,125.4,63.5z M117.5,54.8c2.2,0.7,4.4,1.3,6.6,2c-0.1,0.1-0.1,0.1-0.2,0.2c-0.8,0.8-1.6,1.6-2.4,2.4
		c-0.1,0.1-0.2,0.2-0.4,0.1c-1.4-0.5-2.7-0.9-4.1-1.4c-0.1,0-0.1-0.1-0.2-0.1C117.3,57.1,117.5,56,117.5,54.8z M111.9,50.8
		c2.5,0,4.5,2,4.5,4.5c0,2.4-2,4.4-4.5,4.4c-2.5,0-4.5-2-4.5-4.5C107.4,52.8,109.4,50.8,111.9,50.8z M98.6,56.9
		c2.6-0.8,5.2-1.6,7.7-2.4c0,0.6,0,1.2,0.1,1.7c0.1,0.6,0.3,1.1,0.5,1.7c-0.8,0.3-1.6,0.5-2.4,0.8c-1,0.3-1.9,0.6-2.9,0.9
		c-0.1,0-0.2,0-0.3,0C100.4,58.7,99.5,57.8,98.6,56.9z M99.7,63.9c0.6-1,1.2-2,1.8-3c3,1,6,2,9,3c-0.6,1-1.2,2-1.8,3
		C105.7,65.9,102.7,64.9,99.7,63.9z M110.7,77c-0.4-0.1-0.8-0.3-1.1-0.4c-2.1-0.8-4.3-1.6-6.4-2.4c-0.2-0.1-0.3-0.2-0.3-0.4
		c0-2.4,0-4.8,0-7.3c0-0.1,0-0.2,0-0.3c0.8,0.3,1.5,0.5,2.3,0.8c1.1,0.4,2.3,0.8,3.4,1.1c0.5,0.2,0.7,0.1,0.9-0.4
		c0.4-0.6,0.8-1.3,1.1-1.9c0,0,0,0,0.1-0.1C110.7,69.5,110.7,73.2,110.7,77z M111.5,63c-0.1,0-0.3,0.1-0.4,0
		c-2.6-0.9-5.2-1.7-7.9-2.6c-0.1,0-0.1,0-0.2-0.1c1.5-0.5,2.9-1,4.4-1.4c0.1,0,0.2,0,0.3,0.1c0.8,0.8,1.7,1.4,2.7,1.7
		c2,0.5,3.8,0.1,5.3-1.3c0.2-0.2,0.4-0.2,0.6-0.1c1.1,0.4,2.1,0.7,3.3,1.1c-0.1,0.1-0.2,0.1-0.3,0.1C116.7,61.3,114.1,62.1,111.5,63
		z M120.8,74c-3,1-6,2-8.9,3c0-3.9,0-7.8,0-11.7c0.3,0.3,0.5,0.6,0.7,0.9c0.4,0.5,0.8,1,1.2,1.4c0.3,0.3,0.4,0.4,0.8,0.3
		c2-0.6,3.9-1.2,5.9-1.8c0.1,0,0.2-0.1,0.4-0.1C120.8,68.7,120.8,71.3,120.8,74z M123.8,63.8c-3,1-6.1,1.9-9.1,2.9
		c-0.1,0-0.2,0.1-0.4-0.1c-0.7-0.9-1.3-1.7-2-2.5c0,0,0-0.1-0.1-0.1c0.5-0.2,1.1-0.4,1.6-0.5c2.4-0.8,4.7-1.6,7.1-2.4
		c0.2-0.1,0.4,0,0.5,0.1c0.8,0.9,1.7,1.7,2.6,2.6C123.9,63.8,123.9,63.8,123.8,63.8z"/>
	<path class="st1" d="M109.3,74.1c-1.2-0.5-2.3-0.9-3.5-1.3c-0.3-0.1-0.5,0.1-0.6,0.3c-0.1,0.3,0,0.5,0.3,0.7c0.1,0,0.1,0.1,0.2,0.1
		c1,0.4,2.1,0.8,3.1,1.2c0.1,0,0.2,0.1,0.3,0.1c0.3,0,0.5-0.1,0.6-0.4C109.7,74.5,109.6,74.2,109.3,74.1z"/>
	<path class="st1" d="M109.3,71.7c-0.5-0.2-1-0.4-1.5-0.5c-0.2-0.1-0.5,0.1-0.6,0.3c-0.1,0.2-0.1,0.5,0.2,0.6c0.5,0.3,1,0.4,1.6,0.7
		c0.3,0,0.5-0.2,0.6-0.4C109.7,72.1,109.6,71.8,109.3,71.7z"/>
	<path class="st1" d="M105.7,71.5c0.3,0,0.6-0.2,0.6-0.5c0-0.3-0.2-0.6-0.5-0.6c-0.3,0-0.6,0.2-0.6,0.5
		C105.1,71.2,105.4,71.5,105.7,71.5z"/>
	<path class="st1" d="M110.8,57.2c0.4,0.4,0.7,0.4,1.1,0c1-1,2.1-2.1,3.1-3.1c0.1-0.1,0.2-0.2,0.2-0.3c0.1-0.2,0.1-0.5-0.1-0.6
		c-0.2-0.2-0.4-0.2-0.6-0.1c-0.1,0.1-0.2,0.2-0.3,0.2c-0.7,0.7-1.3,1.3-2,2c-0.3,0.3-0.5,0.5-0.8,0.8c-0.3-0.3-0.4-0.5-0.7-0.7
		c-0.3-0.3-0.6-0.3-0.9-0.1c-0.2,0.2-0.2,0.6,0.1,0.9C110.2,56.6,110.5,56.9,110.8,57.2z"/>
</g>
</svg>
